<svg width="180" height="180" viewBox="0 0 180 180" fill="none" xmlns="http://www.w3.org/2000/svg">
<path d="M165 93.7508C165 90.0653 164.96 82.629 164.881 78.933C164.392 55.9415 164.147 44.4457 155.663 35.93C147.179 27.4142 135.373 27.1176 111.759 26.5243C97.2053 26.1586 82.7947 26.1586 68.2411 26.5242C44.6275 27.1175 32.8206 27.4141 24.3371 35.9299C15.8537 44.4456 15.6085 55.9414 15.1182 78.933C14.9605 86.3258 14.9606 93.6743 15.1183 101.067C15.6086 124.059 15.8537 135.554 24.3372 144.071C32.8206 152.586 44.6275 152.882 68.2412 153.476C74.2619 153.627 80.2582 153.716 86.25 153.742" stroke="#EEEEEE" stroke-width="11.25" stroke-linecap="round" stroke-linejoin="round"/>
<path d="M15 45L66.8477 74.4346C85.7903 85.1887 94.2097 85.1887 113.152 74.4346L165 45" stroke="#EEEEEE" stroke-width="11.25" stroke-linejoin="round"/>
<path d="M165 131.25H105M165 131.25C165 125.998 150.043 116.186 146.25 112.5M165 131.25C165 136.502 150.043 146.314 146.25 150" stroke="#2F0328" stroke-width="11.25" stroke-linecap="round" stroke-linejoin="round"/>
</svg>
